<svg version="1.1" id="Layer_1" xmlns="http://www.w3.org/2000/svg" xmlns:xlink="http://www.w3.org/1999/xlink" x="0px" y="0px"
	 width="100%" viewBox="0 0 5000 729" enable-background="new 0 0 5000 729" xml:space="preserve">
<path fill="#000000" opacity="1.000000" stroke="none" 
	d="
M5001.000000,722.000000 
	C5001.000000,724.666443 5001.000000,727.332886 5001.000000,729.999634 
	C3530.292236,730.000000 2059.584717,730.000000 588.199646,729.627930 
	C588.196228,728.847656 588.830688,728.177551 589.549744,728.069092 
	C618.407593,723.717773 643.294556,712.049561 662.911072,689.751404 
	C674.656311,676.400574 682.801086,661.185913 689.078979,644.781311 
	C701.457031,612.436462 704.726868,578.459290 704.807007,544.370911 
	C705.222656,367.556152 704.999512,190.739899 704.999084,13.924183 
	C704.999084,12.010207 704.999023,10.096231 704.999023,8.275342 
	C650.951904,8.275342 597.688904,8.275342 544.000732,8.275342 
	C544.000732,10.672990 544.000732,12.801119 544.000732,14.929249 
	C544.000732,158.248306 543.955627,301.567383 544.045593,444.886383 
	C544.060364,468.485687 544.667542,492.084564 545.001282,515.683655 
	C545.010742,516.350098 545.019775,517.016479 545.037781,517.682739 
	C545.355164,529.447388 545.948425,541.216492 545.760010,552.973022 
	C545.722412,555.318848 543.138733,558.543152 540.896729,559.604980 
	C539.449646,560.290405 536.002808,558.255066 534.323792,556.570312 
	C532.208557,554.447876 530.811462,551.527832 529.399353,548.799377 
	C518.223938,527.205750 507.129883,505.570068 495.988586,483.958771 
	C485.146484,462.927826 474.272369,441.913452 463.422791,420.886353 
	C452.799438,400.297699 442.210815,379.691101 431.566864,359.113098 
	C422.575928,341.730896 413.546295,324.368652 404.500183,307.015076 
	C392.057373,283.145325 379.587341,259.289764 367.120667,235.432465 
	C357.003784,216.072006 346.944733,196.680878 336.731689,177.371246 
	C326.064056,157.202194 315.200134,137.137039 304.500458,116.984833 
	C292.408051,94.209503 279.881744,71.800316 262.852325,52.110516 
	C250.543884,37.879208 236.585266,25.920246 220.076645,17.112419 
	C206.205444,9.711720 191.407516,4.737543 175.666916,2.904777 
	C175.045776,2.832456 174.552734,1.659901 174.000000,0.999997 
	C1782.879395,1.000000 3391.758789,1.000000 5001.000000,1.000000 
	C5001.000000,67.373909 5001.000000,133.748474 5000.595703,200.756897 
	C4999.777832,198.045227 4999.464844,194.683655 4998.932617,191.356995 
	C4996.998047,179.268402 4995.025391,167.185745 4993.002930,155.111618 
	C4989.925293,136.735428 4984.513184,119.013397 4976.529297,102.228134 
	C4967.391602,83.015022 4955.338379,65.914742 4938.750488,52.098537 
	C4922.154297,38.274937 4903.273438,28.801962 4883.006836,22.270685 
	C4870.989746,18.397913 4858.405273,15.797567 4845.875977,14.112062 
	C4825.887695,11.423085 4805.738770,8.334772 4785.647461,8.262716 
	C4646.348633,7.763128 4507.047363,7.999720 4367.746582,8.000025 
	C4365.968750,8.000029 4364.190430,8.000025 4362.330078,8.000025 
	C4362.330078,59.264233 4362.330078,109.973755 4362.330078,160.998703 
	C4364.798828,160.998703 4366.940918,160.998703 4369.083008,160.998703 
	C4498.885742,160.998718 4628.688965,160.958908 4758.491699,161.084854 
	C4767.515137,161.093597 4776.674805,161.568222 4785.534668,163.149612 
	C4808.917480,167.323334 4825.252441,180.419952 4832.943359,203.316956 
	C4836.600586,214.204544 4839.028809,225.367599 4839.050293,236.933960 
	C4839.076660,251.139679 4839.056641,265.345490 4839.056641,279.999023 
	C4837.521973,279.999023 4835.559082,279.999054 4833.595703,279.999054 
	C4731.453125,279.999084 4629.310059,279.992340 4527.167480,280.004883 
	C4507.325684,280.007294 4487.523926,279.795166 4467.765137,282.848450 
	C4447.338867,286.004730 4427.726074,291.156891 4409.110352,300.338196 
	C4377.635742,315.861084 4356.020996,340.532867 4342.422852,372.297852 
	C4329.790527,401.805725 4325.158203,433.121338 4324.023926,465.015198 
	C4323.798828,471.337555 4323.890137,477.671173 4323.474121,484.232544 
	C4323.075195,492.948730 4322.968750,501.432526 4323.040039,509.914795 
	C4323.062988,512.612061 4323.557129,515.305298 4323.903809,518.464661 
	C4324.646973,533.462341 4325.126465,548.008179 4326.045898,562.526123 
	C4327.143555,579.863037 4330.923828,596.747742 4336.148926,613.255432 
	C4342.499023,633.314331 4351.638184,652.057068 4365.596680,667.987793 
	C4380.292969,684.760925 4397.992676,697.532471 4418.761230,705.980103 
	C4443.890137,716.201172 4470.235352,721.695007 4497.086914,721.768311 
	C4665.057129,722.226990 4833.028809,721.999939 5001.000000,722.000000 
M3918.996094,722.973450 
	C3971.382080,722.982056 4023.767822,722.998352 4076.153809,722.952637 
	C4077.396973,722.951538 4078.639648,722.255127 4079.979736,720.964905 
	C4079.979736,534.061218 4079.979736,347.157562 4079.979736,159.879059 
	C4156.339355,159.879059 4231.936035,159.879059 4307.688477,159.879059 
	C4307.688477,109.119019 4307.688477,58.735256 4307.688477,8.363078 
	C4101.000488,8.363078 3894.624268,8.363078 3688.236572,8.363078 
	C3688.236572,58.993816 3688.236572,109.261078 3688.236572,160.069885 
	C3764.521973,160.069885 3840.572998,160.069885 3917.000000,160.069885 
	C3917.000000,162.741852 3917.000000,164.875824 3917.000000,167.009796 
	C3917.000000,350.332153 3916.996582,533.654541 3917.044678,716.976868 
	C3917.045166,718.931458 3917.721680,720.885864 3918.996094,722.973450 
M1149.784668,722.575378 
	C1149.856445,720.415405 1149.990967,718.255371 1149.990967,716.095398 
	C1150.000732,532.929626 1150.000000,349.763855 1150.000000,166.598068 
	C1150.000000,164.502808 1150.000000,162.407547 1150.000000,159.788330 
	C1226.726196,159.788330 1302.780762,159.788330 1378.734131,159.788330 
	C1378.734131,108.981712 1378.734131,58.710983 1378.734131,8.329998 
	C1172.083374,8.329998 965.699402,8.329998 759.387329,8.329998 
	C759.387329,59.048290 759.387329,109.435593 759.387329,160.194443 
	C835.375977,160.194443 910.977905,160.194443 987.002136,160.194443 
	C987.002136,162.690918 987.002075,164.819168 987.002075,166.947433 
	C987.002136,349.946533 986.999329,532.945679 987.040100,715.944763 
	C987.040527,717.983582 987.610413,720.022278 988.406006,722.780334 
	C999.204712,722.853516 1010.003479,722.993164 1020.802185,722.988281 
	C1063.522461,722.968994 1106.242798,722.904358 1149.784668,722.575378 
M1659.401855,722.777100 
	C1659.728027,722.840454 1660.054199,722.959290 1660.380371,722.959412 
	C1713.303955,722.978210 1766.227539,722.994080 1819.151123,722.952454 
	C1820.061768,722.951721 1820.972046,722.253540 1821.979858,720.963074 
	C1821.979858,534.062378 1821.979858,347.161743 1821.979858,159.888184 
	C1898.330566,159.888184 1973.925781,159.888184 2049.694824,159.888184 
	C2049.694824,109.131004 2049.694824,58.748070 2049.694824,8.351665 
	C1843.017212,8.351665 1636.644653,8.351665 1430.407959,8.351665 
	C1430.407959,59.088547 1430.407959,109.472763 1430.407959,160.225342 
	C1506.412476,160.225342 1582.009521,160.225342 1657.998779,160.225342 
	C1657.998779,162.717972 1657.998901,164.852768 1657.998901,166.987564 
	C1657.998901,349.972351 1657.995850,532.957092 1658.036377,715.941895 
	C1658.036865,717.980652 1658.604736,720.019287 1659.401855,722.777100 
M2978.075928,518.602966 
	C2978.383057,519.680115 2978.907715,520.745911 2978.964844,521.836121 
	C2979.681641,535.534302 2979.770508,549.293274 2981.161865,562.920105 
	C2982.452148,575.557068 2984.167725,588.302917 2987.387207,600.556396 
	C2992.813477,621.206421 3000.400879,641.139587 3013.243896,658.593994 
	C3022.489502,671.159302 3033.354980,682.159302 3046.180664,691.030090 
	C3060.871826,701.191162 3077.051025,708.243347 3094.277832,713.009583 
	C3112.976318,718.182922 3132.092285,721.762878 3151.357910,721.802551 
	C3318.018555,722.145569 3484.679932,722.000000 3651.341309,722.000000 
	C3653.110840,722.000000 3654.880127,722.000000 3656.830078,722.000000 
	C3656.904785,720.417175 3656.992432,719.444092 3656.990479,718.471130 
	C3656.664551,560.041748 3656.349609,401.612396 3655.959961,243.183167 
	C3655.934326,232.747757 3655.672119,222.289246 3654.917236,211.885193 
	C3653.932129,198.314117 3652.725586,184.736145 3650.931641,171.251953 
	C3647.960938,148.925034 3642.461426,127.278351 3633.344971,106.516212 
	C3624.251953,85.806885 3611.830322,67.891792 3594.683350,52.955044 
	C3579.014404,39.305225 3561.133301,29.763746 3541.677246,23.596838 
	C3526.708008,18.852011 3511.137207,15.514295 3495.587891,13.218587 
	C3477.404785,10.534010 3458.958496,8.273415 3440.619385,8.220376 
	C3301.291748,7.817422 3161.962402,7.999951 3022.633545,8.000029 
	C3020.866211,8.000030 3019.098877,8.000029 3017.381836,8.000029 
	C3017.381836,59.352749 3017.381836,110.069717 3017.381836,160.998703 
	C3019.918457,160.998703 3022.074219,160.998688 3024.230225,160.998703 
	C3155.559326,160.998993 3286.888428,160.940826 3418.217285,161.128616 
	C3427.163086,161.141403 3436.316162,162.118286 3445.006104,164.187286 
	C3462.364502,168.320129 3475.982666,177.708847 3484.183350,194.386612 
	C3491.429932,209.124039 3493.849365,224.853424 3494.837891,240.816864 
	C3495.635986,253.706757 3494.999756,266.685455 3494.999756,279.999023 
	C3492.445068,279.999023 3490.478027,279.999054 3488.510986,279.999054 
	C3382.181152,279.999054 3275.851074,280.046753 3169.521240,279.952423 
	C3151.665771,279.936584 3133.958008,280.896515 3116.318604,283.907471 
	C3095.329590,287.490265 3075.157959,293.296783 3056.682129,304.089905 
	C3030.686768,319.276093 3011.759766,340.833618 2999.326416,368.220306 
	C2985.078125,399.604584 2980.153320,432.882477 2979.023682,466.944031 
	C2978.835938,472.604492 2978.959961,478.275269 2978.192871,484.391205 
	C2978.163086,495.500427 2978.133301,506.609650 2978.075928,518.602966 
M2912.911377,188.800049 
	C2912.582764,186.200348 2912.444336,183.559509 2911.893311,181.007843 
	C2908.982422,167.527405 2906.503418,153.923080 2902.875000,140.634720 
	C2895.799805,114.725151 2884.374268,90.821129 2866.735107,70.351044 
	C2851.036133,52.132351 2831.579834,38.772205 2809.564453,29.311762 
	C2782.779785,17.801741 2754.384033,12.742256 2725.573975,10.137424 
	C2709.940674,8.723969 2694.185547,8.101812 2678.484619,8.085217 
	C2536.173096,7.934801 2393.861816,7.997085 2251.550293,7.997088 
	C2249.791016,7.997088 2248.031494,7.997089 2246.371582,7.997089 
	C2246.371582,246.380463 2246.371582,484.072906 2246.371582,722.000000 
	C2248.894531,722.000000 2251.047363,722.000000 2253.200439,722.000000 
	C2400.011230,722.000000 2546.822021,721.951355 2693.632812,722.060059 
	C2712.484375,722.074036 2731.172852,720.889465 2749.817871,718.081970 
	C2769.542969,715.111694 2788.672852,710.247803 2807.077393,702.477966 
	C2832.750977,691.639282 2854.666504,675.979797 2871.819824,653.756531 
	C2888.864502,631.674316 2899.053223,606.417480 2905.786621,579.782288 
	C2909.366211,565.621460 2911.244873,550.954346 2912.899658,536.403015 
	C2914.831299,519.417297 2916.733887,502.313812 2916.820312,485.252197 
	C2917.224609,405.266510 2917.000000,325.277679 2916.999512,245.289963 
	C2916.999512,244.123505 2917.061035,242.951614 2916.972900,241.791412 
	C2915.656006,224.428101 2914.318115,207.066360 2912.911377,188.800049 
z"/>
<path fill="#6485C1" opacity="1.000000" stroke="none" 
	d="
M4323.835449,483.999573 
	C4323.890137,477.671173 4323.798828,471.337555 4324.023926,465.015198 
	C4325.158203,433.121338 4329.790527,401.805725 4342.422852,372.297852 
	C4356.020996,340.532867 4377.635742,315.861084 4409.110352,300.338196 
	C4427.726074,291.156891 4447.338867,286.004730 4467.765137,282.848450 
	C4487.523926,279.795166 4507.325684,280.007294 4527.167480,280.004883 
	C4629.310059,279.992340 4731.453125,279.999084 4833.595703,279.999054 
	C4835.559082,279.999054 4837.521973,279.999023 4839.056641,279.999023 
	C4839.056641,265.345490 4839.076660,251.139679 4839.050293,236.933960 
	C4839.028809,225.367599 4836.600586,214.204544 4832.943359,203.316956 
	C4825.252441,180.419952 4808.917480,167.323334 4785.534668,163.149612 
	C4776.674805,161.568222 4767.515137,161.093597 4758.491699,161.084854 
	C4628.688965,160.958908 4498.885742,160.998718 4369.083008,160.998703 
	C4366.940918,160.998703 4364.798828,160.998703 4362.330078,160.998703 
	C4362.330078,109.973755 4362.330078,59.264233 4362.330078,8.000025 
	C4364.190430,8.000025 4365.968750,8.000029 4367.746582,8.000025 
	C4507.047363,7.999720 4646.348633,7.763128 4785.647461,8.262716 
	C4805.738770,8.334772 4825.887695,11.423085 4845.875977,14.112062 
	C4858.405273,15.797567 4870.989746,18.397913 4883.006836,22.270685 
	C4903.273438,28.801962 4922.154297,38.274937 4938.750488,52.098537 
	C4955.338379,65.914742 4967.391602,83.015022 4976.529297,102.228134 
	C4984.513184,119.013397 4989.925293,136.735428 4993.002930,155.111618 
	C4995.025391,167.185745 4996.998047,179.268402 4998.932617,191.356995 
	C4999.464844,194.683655 4999.777832,198.045227 5000.595703,201.195374 
	C5001.000000,374.354218 5001.000000,547.708435 5001.000000,721.531372 
	C4833.028809,721.999939 4665.057129,722.226990 4497.086914,721.768311 
	C4470.235352,721.695007 4443.890137,716.201172 4418.761230,705.980103 
	C4397.992676,697.532471 4380.292969,684.760925 4365.596680,667.987793 
	C4351.638184,652.057068 4342.499023,633.314331 4336.148926,613.255432 
	C4330.923828,596.747742 4327.143555,579.863037 4326.045898,562.526123 
	C4325.126465,548.008179 4324.646973,533.462341 4323.962891,517.999512 
	C4323.914551,506.046570 4323.875000,495.023071 4323.835449,483.999573 
M4514.628906,427.992584 
	C4508.062012,430.993744 4502.124023,434.560364 4497.605957,440.621002 
	C4488.406738,452.960205 4485.053223,467.284271 4484.260254,481.938721 
	C4483.256836,500.470825 4483.114746,519.117371 4489.877441,537.083618 
	C4497.519043,557.384705 4511.957031,568.908630 4533.984863,568.939270 
	C4633.938965,569.078003 4733.892578,568.999878 4833.846680,568.999878 
	C4835.782227,568.999878 4837.717773,568.999878 4839.649414,568.999878 
	C4839.649414,520.344360 4839.649414,472.308594 4839.649414,424.000916 
	C4838.318848,424.000916 4837.338379,424.000946 4836.357910,424.000946 
	C4736.903809,424.000732 4637.449707,423.916412 4537.996094,424.168427 
	C4530.470215,424.187469 4522.950195,426.596680 4514.628906,427.992584 
z"/>
<path fill="#6485C1" opacity="1.000000" stroke="none" 
	d="
M173.531342,0.999997 
	C174.552734,1.659901 175.045776,2.832456 175.666916,2.904777 
	C191.407516,4.737543 206.205444,9.711720 220.076645,17.112419 
	C236.585266,25.920246 250.543884,37.879208 262.852325,52.110516 
	C279.881744,71.800316 292.408051,94.209503 304.500458,116.984833 
	C315.200134,137.137039 326.064056,157.202194 336.731689,177.371246 
	C346.944733,196.680878 357.003784,216.072006 367.120667,235.432465 
	C379.587341,259.289764 392.057373,283.145325 404.500183,307.015076 
	C413.546295,324.368652 422.575928,341.730896 431.566864,359.113098 
	C442.210815,379.691101 452.799438,400.297699 463.422791,420.886353 
	C474.272369,441.913452 485.146484,462.927826 495.988586,483.958771 
	C507.129883,505.570068 518.223938,527.205750 529.399353,548.799377 
	C530.811462,551.527832 532.208557,554.447876 534.323792,556.570312 
	C536.002808,558.255066 539.449646,560.290405 540.896729,559.604980 
	C543.138733,558.543152 545.722412,555.318848 545.760010,552.973022 
	C545.948425,541.216492 545.355164,529.447388 545.037781,517.682739 
	C545.019775,517.016479 545.010742,516.350098 545.001282,515.683655 
	C544.667542,492.084564 544.060364,468.485687 544.045593,444.886383 
	C543.955627,301.567383 544.000732,158.248306 544.000732,14.929249 
	C544.000732,12.801119 544.000732,10.672990 544.000732,8.275342 
	C597.688904,8.275342 650.951904,8.275342 704.999023,8.275342 
	C704.999023,10.096231 704.999084,12.010207 704.999084,13.924183 
	C704.999512,190.739899 705.222656,367.556152 704.807007,544.370911 
	C704.726868,578.459290 701.457031,612.436462 689.078979,644.781311 
	C682.801086,661.185913 674.656311,676.400574 662.911072,689.751404 
	C643.294556,712.049561 618.407593,723.717773 589.549744,728.069092 
	C588.830688,728.177551 588.196228,728.847656 587.761169,729.627930 
	C569.312439,730.000000 550.624878,730.000000 531.697510,729.624390 
	C528.687683,728.502991 525.954895,727.549927 523.141724,727.043701 
	C498.006287,722.521057 476.053497,711.426147 457.113556,694.507141 
	C445.196106,683.861328 434.915100,671.603516 426.596466,657.977051 
	C413.990234,637.327332 401.807983,616.410217 389.836761,595.384094 
	C380.558014,579.086975 371.746582,562.518555 362.961456,545.946716 
	C349.052826,519.709900 335.303040,493.388550 321.557159,467.065826 
	C312.266266,449.274170 303.106171,431.414154 293.872040,413.592743 
	C282.303589,391.266235 270.689209,368.963501 259.153717,346.620026 
	C252.939606,334.583710 246.842987,322.486725 240.703812,310.411774 
	C231.749420,292.799622 222.804138,275.182831 213.855545,257.567749 
	C200.678787,231.629547 187.513870,205.685318 174.302231,179.764908 
	C173.353424,177.903412 172.395172,175.810287 170.850082,174.549225 
	C168.936142,172.987091 166.296036,171.157028 164.175293,171.381943 
	C162.556763,171.553574 161.012268,174.608429 159.904266,176.637070 
	C159.172516,177.976822 159.003647,179.777817 159.044327,181.360428 
	C159.286819,190.795334 159.697998,200.225723 159.986847,209.659653 
	C160.356995,221.749451 160.951431,233.841034 160.956467,245.932053 
	C161.021881,403.069916 160.999878,560.207764 160.999893,717.345642 
	C160.999893,719.114685 160.999878,720.883728 160.999878,723.000000 
	C107.253326,723.000000 54.126663,723.000000 1.000000,723.000000 
	C1.000000,531.312439 1.000000,339.624878 1.408456,147.614777 
	C2.208300,146.450745 2.835811,145.641083 2.954192,144.762772 
	C4.023505,136.829224 4.406744,128.751633 6.128240,120.967758 
	C10.334388,101.949326 15.607480,83.253326 24.966209,65.932518 
	C33.868019,49.457371 45.439873,35.158836 60.530724,24.226809 
	C76.660637,12.542053 95.044449,5.756328 114.830307,2.920900 
	C115.628899,2.806456 116.280121,1.663666 117.000000,1.000000 
	C135.687561,1.000000 154.375122,1.000000 173.531342,0.999997 
z"/>
<path fill="#000000" opacity="1.000000" stroke="none" 
	d="
M1.000000,723.497925 
	C54.126663,723.000000 107.253326,723.000000 160.999878,723.000000 
	C160.999878,720.883728 160.999893,719.114685 160.999893,717.345642 
	C160.999878,560.207764 161.021881,403.069916 160.956467,245.932053 
	C160.951431,233.841034 160.356995,221.749451 159.986847,209.659653 
	C159.697998,200.225723 159.286819,190.795334 159.044327,181.360428 
	C159.003647,179.777817 159.172516,177.976822 159.904266,176.637070 
	C161.012268,174.608429 162.556763,171.553574 164.175293,171.381943 
	C166.296036,171.157028 168.936142,172.987091 170.850082,174.549225 
	C172.395172,175.810287 173.353424,177.903412 174.302231,179.764908 
	C187.513870,205.685318 200.678787,231.629547 213.855545,257.567749 
	C222.804138,275.182831 231.749420,292.799622 240.703812,310.411774 
	C246.842987,322.486725 252.939606,334.583710 259.153717,346.620026 
	C270.689209,368.963501 282.303589,391.266235 293.872040,413.592743 
	C303.106171,431.414154 312.266266,449.274170 321.557159,467.065826 
	C335.303040,493.388550 349.052826,519.709900 362.961456,545.946716 
	C371.746582,562.518555 380.558014,579.086975 389.836761,595.384094 
	C401.807983,616.410217 413.990234,637.327332 426.596466,657.977051 
	C434.915100,671.603516 445.196106,683.861328 457.113556,694.507141 
	C476.053497,711.426147 498.006287,722.521057 523.141724,727.043701 
	C525.954895,727.549927 528.687683,728.502991 531.228882,729.624390 
	C354.333344,730.000000 177.666672,730.000000 1.000000,729.995178 
	C1.000000,727.992188 1.000000,725.994019 1.000000,723.497925 
z"/>
<path fill="#000000" opacity="1.000000" stroke="none" 
	d="
M116.531342,1.000000 
	C116.280121,1.663666 115.628899,2.806456 114.830307,2.920900 
	C95.044449,5.756328 76.660637,12.542053 60.530724,24.226809 
	C45.439873,35.158836 33.868019,49.457371 24.966209,65.932518 
	C15.607480,83.253326 10.334388,101.949326 6.128240,120.967758 
	C4.406744,128.751633 4.023505,136.829224 2.954192,144.762772 
	C2.835811,145.641083 2.208300,146.450745 1.408456,147.146118 
	C1.000000,98.414719 1.000000,49.829441 1.000000,1.000000 
	C39.353882,1.000000 77.708282,1.000000 116.531342,1.000000 
z"/>
<path fill="#6485C1" opacity="1.000000" stroke="none" 
	d="
M2978.939697,483.941284 
	C2978.959961,478.275269 2978.835938,472.604492 2979.023682,466.944031 
	C2980.153320,432.882477 2985.078125,399.604584 2999.326416,368.220306 
	C3011.759766,340.833618 3030.686768,319.276093 3056.682129,304.089905 
	C3075.157959,293.296783 3095.329590,287.490265 3116.318604,283.907471 
	C3133.958008,280.896515 3151.665771,279.936584 3169.521240,279.952423 
	C3275.851074,280.046753 3382.181152,279.999054 3488.510986,279.999054 
	C3490.478027,279.999054 3492.445068,279.999023 3494.999756,279.999023 
	C3494.999756,266.685455 3495.635986,253.706757 3494.837891,240.816864 
	C3493.849365,224.853424 3491.429932,209.124039 3484.183350,194.386612 
	C3475.982666,177.708847 3462.364502,168.320129 3445.006104,164.187286 
	C3436.316162,162.118286 3427.163086,161.141403 3418.217285,161.128616 
	C3286.888428,160.940826 3155.559326,160.998993 3024.230225,160.998703 
	C3022.074219,160.998688 3019.918457,160.998703 3017.381836,160.998703 
	C3017.381836,110.069717 3017.381836,59.352749 3017.381836,8.000029 
	C3019.098877,8.000029 3020.866211,8.000030 3022.633545,8.000029 
	C3161.962402,7.999951 3301.291748,7.817422 3440.619385,8.220376 
	C3458.958496,8.273415 3477.404785,10.534010 3495.587891,13.218587 
	C3511.137207,15.514295 3526.708008,18.852011 3541.677246,23.596838 
	C3561.133301,29.763746 3579.014404,39.305225 3594.683350,52.955044 
	C3611.830322,67.891792 3624.251953,85.806885 3633.344971,106.516212 
	C3642.461426,127.278351 3647.960938,148.925034 3650.931641,171.251953 
	C3652.725586,184.736145 3653.932129,198.314117 3654.917236,211.885193 
	C3655.672119,222.289246 3655.934326,232.747757 3655.959961,243.183167 
	C3656.349609,401.612396 3656.664551,560.041748 3656.990479,718.471130 
	C3656.992432,719.444092 3656.904785,720.417175 3656.830078,722.000000 
	C3654.880127,722.000000 3653.110840,722.000000 3651.341309,722.000000 
	C3484.679932,722.000000 3318.018555,722.145569 3151.357910,721.802551 
	C3132.092285,721.762878 3112.976318,718.182922 3094.277832,713.009583 
	C3077.051025,708.243347 3060.871826,701.191162 3046.180664,691.030090 
	C3033.354980,682.159302 3022.489502,671.159302 3013.243896,658.593994 
	C3000.400879,641.139587 2992.813477,621.206421 2987.387207,600.556396 
	C2984.167725,588.302917 2982.452148,575.557068 2981.161865,562.920105 
	C2979.770508,549.293274 2979.681641,535.534302 2978.964844,521.836121 
	C2978.907715,520.745911 2978.383057,519.680115 2978.311035,517.842041 
	C2978.677246,506.034454 2978.808350,494.987885 2978.939697,483.941284 
M3139.000000,503.435455 
	C3138.978027,515.331726 3140.923584,527.022156 3145.195557,537.999084 
	C3152.948975,557.922546 3166.512695,568.907776 3189.509521,568.940002 
	C3289.170654,569.079895 3388.831787,568.999878 3488.492920,568.999878 
	C3490.582031,568.999878 3492.671143,568.999878 3494.752930,568.999878 
	C3494.752930,520.343872 3494.752930,472.412262 3494.752930,424.000610 
	C3493.390381,424.000610 3492.270020,423.997437 3491.149658,424.001068 
	C3389.221191,424.333588 3287.292236,424.613556 3185.364258,425.045258 
	C3165.379883,425.129883 3151.726562,436.559235 3144.951660,454.818146 
	C3139.225586,470.249908 3138.611572,486.277863 3139.000000,503.435455 
z"/>
<path fill="#6485C1" opacity="1.000000" stroke="none" 
	d="
M2912.948242,189.252151 
	C2914.318115,207.066360 2915.656006,224.428101 2916.972900,241.791412 
	C2917.061035,242.951614 2916.999512,244.123505 2916.999512,245.289963 
	C2917.000000,325.277679 2917.224609,405.266510 2916.820312,485.252197 
	C2916.733887,502.313812 2914.831299,519.417297 2912.899658,536.403015 
	C2911.244873,550.954346 2909.366211,565.621460 2905.786621,579.782288 
	C2899.053223,606.417480 2888.864502,631.674316 2871.819824,653.756531 
	C2854.666504,675.979797 2832.750977,691.639282 2807.077393,702.477966 
	C2788.672852,710.247803 2769.542969,715.111694 2749.817871,718.081970 
	C2731.172852,720.889465 2712.484375,722.074036 2693.632812,722.060059 
	C2546.822021,721.951355 2400.011230,722.000000 2253.200439,722.000000 
	C2251.047363,722.000000 2248.894531,722.000000 2246.371582,722.000000 
	C2246.371582,484.072906 2246.371582,246.380463 2246.371582,7.997089 
	C2248.031494,7.997089 2249.791016,7.997088 2251.550293,7.997088 
	C2393.861816,7.997085 2536.173096,7.934801 2678.484619,8.085217 
	C2694.185547,8.101812 2709.940674,8.723969 2725.573975,10.137424 
	C2754.384033,12.742256 2782.779785,17.801741 2809.564453,29.311762 
	C2831.579834,38.772205 2851.036133,52.132351 2866.735107,70.351044 
	C2884.374268,90.821129 2895.799805,114.725151 2902.875000,140.634720 
	C2906.503418,153.923080 2908.982422,167.527405 2911.893311,181.007843 
	C2912.444336,183.559509 2912.582764,186.200348 2912.948242,189.252151 
M2409.000000,221.500000 
	C2409.000000,337.584412 2409.000000,453.668823 2409.000000,570.000000 
	C2411.711182,570.000000 2413.696045,570.000000 2415.680664,570.000000 
	C2498.346680,570.000000 2581.012939,569.996765 2663.678955,570.003418 
	C2676.364014,570.004395 2688.972412,569.239258 2701.293457,565.970703 
	C2714.634277,562.431641 2725.994629,555.902161 2734.261230,544.436584 
	C2745.972900,528.192627 2749.648682,509.337646 2749.773926,490.212402 
	C2750.305908,408.883087 2750.017578,327.548279 2749.984863,246.215469 
	C2749.978516,230.375412 2747.772217,214.842667 2741.892822,200.062988 
	C2737.106689,188.030746 2729.200684,178.274918 2718.034424,171.599945 
	C2705.047607,163.836655 2690.436035,161.183228 2675.680664,161.136368 
	C2588.682129,160.860062 2501.682373,161.000122 2414.682861,161.000000 
	C2412.910889,161.000000 2411.138672,161.000000 2409.560303,161.000000 
	C2409.263184,161.898453 2409.075928,162.200653 2409.075439,162.503220 
	C2409.040771,181.835464 2409.021240,201.167740 2409.000000,221.500000 
z"/>
<path fill="#6485C1" opacity="1.000000" stroke="none" 
	d="
M1658.907715,722.057861 
	C1658.604736,720.019287 1658.036865,717.980652 1658.036377,715.941895 
	C1657.995850,532.957092 1657.998901,349.972351 1657.998901,166.987564 
	C1657.998901,164.852768 1657.998779,162.717972 1657.998779,160.225342 
	C1582.009521,160.225342 1506.412476,160.225342 1430.407959,160.225342 
	C1430.407959,109.472763 1430.407959,59.088547 1430.407959,8.351665 
	C1636.644653,8.351665 1843.017212,8.351665 2049.694824,8.351665 
	C2049.694824,58.748070 2049.694824,109.131004 2049.694824,159.888184 
	C1973.925781,159.888184 1898.330566,159.888184 1821.979858,159.888184 
	C1821.979858,347.161743 1821.979858,534.062378 1821.470825,721.446655 
	C1766.943848,721.972778 1712.925781,722.015320 1658.907715,722.057861 
z"/>
<path fill="#6485C1" opacity="1.000000" stroke="none" 
	d="
M987.914490,722.061035 
	C987.610413,720.022278 987.040527,717.983582 987.040100,715.944763 
	C986.999329,532.945679 987.002136,349.946533 987.002075,166.947433 
	C987.002075,164.819168 987.002136,162.690918 987.002136,160.194443 
	C910.977905,160.194443 835.375977,160.194443 759.387329,160.194443 
	C759.387329,109.435593 759.387329,59.048290 759.387329,8.329998 
	C965.699402,8.329998 1172.083374,8.329998 1378.734131,8.329998 
	C1378.734131,58.710983 1378.734131,108.981712 1378.734131,159.788330 
	C1302.780762,159.788330 1226.726196,159.788330 1150.000000,159.788330 
	C1150.000000,162.407547 1150.000000,164.502808 1150.000000,166.598068 
	C1150.000000,349.763855 1150.000732,532.929626 1149.990967,716.095398 
	C1149.990967,718.255371 1149.856445,720.415405 1149.002808,722.545593 
	C1146.741333,722.344788 1145.261841,722.024414 1143.782227,722.024231 
	C1091.826294,722.017822 1039.870361,722.041565 987.914490,722.061035 
z"/>
<path fill="#6485C1" opacity="1.000000" stroke="none" 
	d="
M3918.082520,722.840332 
	C3917.721680,720.885864 3917.045166,718.931458 3917.044678,716.976868 
	C3916.996582,533.654541 3917.000000,350.332153 3917.000000,167.009796 
	C3917.000000,164.875824 3917.000000,162.741852 3917.000000,160.069885 
	C3840.572998,160.069885 3764.521973,160.069885 3688.236572,160.069885 
	C3688.236572,109.261078 3688.236572,58.993816 3688.236572,8.363078 
	C3894.624268,8.363078 4101.000488,8.363078 4307.688477,8.363078 
	C4307.688477,58.735256 4307.688477,109.119019 4307.688477,159.879059 
	C4231.936035,159.879059 4156.339355,159.879059 4079.979736,159.879059 
	C4079.979736,347.157562 4079.979736,534.061218 4079.470947,721.448364 
	C4027.784668,721.954590 3976.607178,721.965881 3925.429688,722.035767 
	C3922.980469,722.039062 3920.531494,722.560303 3918.082520,722.840332 
z"/>
<path fill="#5481D5" opacity="1.000000" stroke="none" 
	d="
M1659.154785,722.417480 
	C1712.925781,722.015320 1766.943848,721.972778 1821.422119,721.905518 
	C1820.972046,722.253540 1820.061768,722.951721 1819.151123,722.952454 
	C1766.227539,722.994080 1713.303955,722.978210 1660.380371,722.959412 
	C1660.054199,722.959290 1659.728027,722.840454 1659.154785,722.417480 
z"/>
<path fill="#5481D5" opacity="1.000000" stroke="none" 
	d="
M3918.539307,722.906860 
	C3920.531494,722.560303 3922.980469,722.039062 3925.429688,722.035767 
	C3976.607178,721.965881 4027.784668,721.954590 4079.422363,721.907349 
	C4078.639648,722.255127 4077.396973,722.951538 4076.153809,722.952637 
	C4023.767822,722.998352 3971.382080,722.982056 3918.539307,722.906860 
z"/>
<path fill="#5580D5" opacity="1.000000" stroke="none" 
	d="
M988.160278,722.420654 
	C1039.870361,722.041565 1091.826294,722.017822 1143.782227,722.024231 
	C1145.261841,722.024414 1146.741333,722.344788 1148.592041,722.686157 
	C1106.242798,722.904358 1063.522461,722.968994 1020.802185,722.988281 
	C1010.003479,722.993164 999.204712,722.853516 988.160278,722.420654 
z"/>
<path fill="#8080FF" opacity="1.000000" stroke="none" 
	d="
M2978.566406,484.166260 
	C2978.808350,494.987885 2978.677246,506.034454 2978.324707,517.399963 
	C2978.133301,506.609650 2978.163086,495.500427 2978.566406,484.166260 
z"/>
<path fill="#00FFFF" opacity="1.000000" stroke="none" 
	d="
M4323.474121,484.232544 
	C4323.875000,495.023071 4323.914551,506.046570 4323.894531,517.535278 
	C4323.557129,515.305298 4323.062988,512.612061 4323.040039,509.914795 
	C4322.968750,501.432526 4323.075195,492.948730 4323.474121,484.232544 
z"/>
<path fill="#000000" opacity="1.000000" stroke="none" 
	d="
M4515.028320,427.943726 
	C4522.950195,426.596680 4530.470215,424.187469 4537.996094,424.168427 
	C4637.449707,423.916412 4736.903809,424.000732 4836.357910,424.000946 
	C4837.338379,424.000946 4838.318848,424.000916 4839.649414,424.000916 
	C4839.649414,472.308594 4839.649414,520.344360 4839.649414,568.999878 
	C4837.717773,568.999878 4835.782227,568.999878 4833.846680,568.999878 
	C4733.892578,568.999878 4633.938965,569.078003 4533.984863,568.939270 
	C4511.957031,568.908630 4497.519043,557.384705 4489.877441,537.083618 
	C4483.114746,519.117371 4483.256836,500.470825 4484.260254,481.938721 
	C4485.053223,467.284271 4488.406738,452.960205 4497.605957,440.621002 
	C4502.124023,434.560364 4508.062012,430.993744 4515.028320,427.943726 
z"/>
<path fill="#000000" opacity="1.000000" stroke="none" 
	d="
M3139.000000,502.943420 
	C3138.611572,486.277863 3139.225586,470.249908 3144.951660,454.818146 
	C3151.726562,436.559235 3165.379883,425.129883 3185.364258,425.045258 
	C3287.292236,424.613556 3389.221191,424.333588 3491.149658,424.001068 
	C3492.270020,423.997437 3493.390381,424.000610 3494.752930,424.000610 
	C3494.752930,472.412262 3494.752930,520.343872 3494.752930,568.999878 
	C3492.671143,568.999878 3490.582031,568.999878 3488.492920,568.999878 
	C3388.831787,568.999878 3289.170654,569.079895 3189.509521,568.940002 
	C3166.512695,568.907776 3152.948975,557.922546 3145.195557,537.999084 
	C3140.923584,527.022156 3138.978027,515.331726 3139.000000,502.943420 
z"/>
<path fill="#000000" opacity="1.000000" stroke="none" 
	d="
M2409.000000,221.000000 
	C2409.021240,201.167740 2409.040771,181.835464 2409.075439,162.503220 
	C2409.075928,162.200653 2409.263184,161.898453 2409.560303,161.000000 
	C2411.138672,161.000000 2412.910889,161.000000 2414.682861,161.000000 
	C2501.682373,161.000122 2588.682129,160.860062 2675.680664,161.136368 
	C2690.436035,161.183228 2705.047607,163.836655 2718.034424,171.599945 
	C2729.200684,178.274918 2737.106689,188.030746 2741.892822,200.062988 
	C2747.772217,214.842667 2749.978516,230.375412 2749.984863,246.215469 
	C2750.017578,327.548279 2750.305908,408.883087 2749.773926,490.212402 
	C2749.648682,509.337646 2745.972900,528.192627 2734.261230,544.436584 
	C2725.994629,555.902161 2714.634277,562.431641 2701.293457,565.970703 
	C2688.972412,569.239258 2676.364014,570.004395 2663.678955,570.003418 
	C2581.012939,569.996765 2498.346680,570.000000 2415.680664,570.000000 
	C2413.696045,570.000000 2411.711182,570.000000 2409.000000,570.000000 
	C2409.000000,453.668823 2409.000000,337.584412 2409.000000,221.000000 
z"/>
</svg>